#!OML:ASF H:\charlestonDancing\Project 1\Capture day 1\Session 1\femaleDancer.ASF
:FULLY-SPECIFIED
:DEGREES
393
root -1.58531 17.5059 5.95319 799.16 -88.238 -801.191
lowerback 27.2075 -5.62819 -0.90073
upperback 9.37904 -8.42896 -2.18103
thorax -4.68502 -4.43893 0.70882
lowerneck 0.770432 -2.89649 -0.610786
upperneck -9.29371 -3.93829 1.82573
head -3.04802 -2.0748 0.810146
rclavicle 0 5.40694e-014
rhumerus -39.856 -18.3118 -49.335
rradius 80.079
rwrist -57.2245
rhand -6.39407 -28.5959
rfingers 7.12502
rthumb 19.4535 -57.6428
lclavicle 0 5.40694e-014
lhumerus 27.7344 -7.40661 48.6983
lradius 69.2081
lwrist 12.17
lhand -23.0633 8.60198
lfingers 7.12502
lthumb 3.38196 38.5549
rfemur -52.7854 14.349 18.8474
rtibia 34.2304
rfoot -17.2408 7.54764
rtoes -22.47
lfemur -18.2398 4.01725 -25.9418
ltibia 36.8998
lfoot -12.0534 -11.7041
ltoes -10.6275
394
root -1.59652 17.4221 5.96067 823.324 -88.9655 -825.746
lowerback 27.4053 -5.30703 -1.83167
upperback 9.33767 -8.29724 -2.50176
thorax -4.7527 -4.38309 0.86007
lowerneck 0.663312 -3.63594 -1.47502
upperneck -9.03408 -4.89904 2.65025
head -2.88593 -2.55163 1.23927
rclavicle -2.70347e-014 6.20208e-014
rhumerus -40.2068 -18.19 -49.2227
rradius 80.4817
rwrist -57.5446
rhand -6.06636 -28.7872
rfingers 7.12502
rthumb 19.7686 -57.8019
lclavicle -2.70347e-014 6.20208e-014
lhumerus 25.7063 -8.79362 47.6991
lradius 70.0331
lwrist 10.2217
lhand -22.1734 8.51809
lfingers 7.12502
lthumb 4.24129 38.4556
rfemur -53.1319 14.7279 18.0473
rtibia 38.1155
rfoot -17.9784 6.6195
rtoes -24.85
lfemur -18.3964 4.99557 -26.759
ltibia 38.0111
lfoot -12.1577 -12.4132
ltoes -8.44284
395
root -1.61331 17.3629 5.96639 866.613 -88.6981 -869.394
lowerback 27.7185 -5.12783 -2.47013
upperback 9.19601 -8.27158 -2.73393
thorax -5.01048 -4.36732 0.996394
lowerneck 0.343038 -4.42486 -2.3023
upperneck -8.59231 -5.94536 3.17756
head -2.61569 -3.06202 1.54934
rclavicle -3.65764e-014 3.18055e-015
rhumerus -40.0697 -17.8155 -49.5783
rradius 80.6398
rwrist -57.3064
rhand -5.72138 -29.1268
rfingers 7.12502
rthumb 20.1002 -58.107
lclavicle -3.65764e-014 3.18055e-015
lhumerus 22.4106 -9.92534 46.919
lradius 71.1403
lwrist 7.99042
lhand -21.0615 8.22879
lfingers 7.12502
lthumb 5.31495 38.1421
rfemur -53.4355 15.1216 18.0078
rtibia 43.6433
rfoot -18.3155 4.94524
rtoes -26.8852
lfemur -18.4074 6.08499 -27.0453
ltibia 38.8192
lfoot -12.3405 -12.9184
ltoes -7.18878
396
root -1.64122 17.3248 5.97728 881.16 -87.7212 -884.189
lowerback 28.0685 -5.09474 -2.86867
upperback 8.99765 -8.36787 -2.87944
thorax -5.36465 -4.40231 1.13865
lowerneck 0.966445 -5.15141 -3.47109
upperneck -8.94063 -6.93676 3.77469
head -2.75989 -3.54512 1.99415
rclavicle 4.29375e-014 1.27222e-014
rhumerus -39.4006 -17.0637 -50.3733
rradius 80.6031
rwrist -56.8124
rhand -5.59925 -29.3589
rfingers 7.12502
rthumb 20.2176 -58.3268
lclavicle 4.29375e-014 1.27222e-014
lhumerus 18.0716 -11.0352 46.3819
lradius 72.4675
lwrist 6.77717
lhand -20.6592 8.42798
lfingers 7.12502
lthumb 5.70344 38.3312
rfemur -53.7973 15.517 18.4409
rtibia 50.1579
rfoot -18.9581 3.23591
rtoes -28.045
lfemur -18.3088 7.25327 -26.9855
ltibia 39.2968
lfoot -12.6176 -13.1474
ltoes -7.34604
397
root -1.67812 17.3371 6.00012 889.512 -86.7954 -892.675
lowerback 28.127 -5.18484 -3.31524
upperback 8.94188 -8.62921 -3.02593
thorax -5.40854 -4.53151 1.31645
lowerneck 1.24384 -6.01255 -4.43155
upperneck -9.39203 -8.13627 4.11941
head -2.86613 -4.13339 2.31921
rclavicle 3.10104e-014 3.49861e-014
rhumerus -38.1437 -16.1635 -51.4253
rradius 80.2747
rwrist -56.2352
rhand -5.48667 -29.1599
rfingers 7.12502
rthumb 20.3258 -58.1163
lclavicle 3.10104e-014 3.49861e-014
lhumerus 13.1276 -11.9539 46.3719
lradius 73.5811
lwrist 5.83912
lhand -20.5482 9.07031
lfingers 7.12502
lthumb 5.81058 38.9706
rfemur -54.2595 15.6875 18.6808
rtibia 57.3437
rfoot -19.0945 1.95448
rtoes -25.17
lfemur -18.0238 8.18668 -27.1552
ltibia 39.3352
lfoot -12.5328 -13.1387
ltoes -7.68697
